<svg xmlns="http://www.w3.org/2000/svg" viewBox="0 0 346 123" fill="none"><path d="M60.9992 88.2L63.4992 86.6C63.0992 85.9 62.6992 85.2 62.2992 84.5L59.6992 85.9C60.0992 86.8 60.4992 87.5 60.9992 88.2Z" fill="url(#paint0_linear_486_4278)"/><path d="M54.6996 72.9994L57.5996 72.2994C57.3996 71.4994 57.2996 70.6994 57.0996 69.8994L54.0996 70.3994C54.2996 71.2994 54.4996 72.0994 54.6996 72.9994Z" fill="url(#paint1_linear_486_4278)"/><path d="M57.7994 40.6994L59.7994 41.5994C59.6994 41.8994 59.4994 42.2994 59.3994 42.5994C59.2994 42.7994 59.2994 42.8994 59.1994 43.0994C58.9994 43.6994 58.6994 44.2994 58.4994 44.9994C58.3994 45.2994 58.2994 45.4994 58.1994 45.7994C58.1994 45.8994 58.1994 45.8994 58.0994 45.9994L55.9994 45.2994C55.7994 45.8994 55.5994 46.4994 55.3994 47.1994L57.4994 47.7994C57.3994 48.0994 57.2994 48.2994 57.2994 48.5994C56.9994 49.5994 56.7994 50.4994 56.5994 51.4994L54.3994 50.9994C53.8994 53.1994 53.5994 55.4994 53.3994 57.7994L55.5994 57.9994C55.4994 59.4994 55.3994 60.9994 55.4994 62.5994L59.1994 62.4994C59.1994 64.6994 59.3994 66.8994 59.7994 69.0994L63.0994 68.4994C63.3994 70.1994 63.7994 71.8994 64.2994 73.5994L67.0994 72.6994C67.2994 73.4994 67.5994 74.1994 67.8994 74.9994L69.7994 74.2994C69.3994 73.1994 68.9994 71.9994 68.6994 70.7994L66.7994 71.2994C66.4994 70.0994 66.1994 68.7994 65.9994 67.4994L63.6994 67.8994C63.3994 66.1994 63.2994 64.4994 63.1994 62.7994L65.4994 62.6994C65.4994 62.3994 65.4994 62.0994 65.4994 61.7994H67.4994V61.4994C67.4994 60.6994 67.4994 59.8994 67.5994 59.0994L65.5994 58.9994C65.5994 58.3994 65.6994 57.6994 65.7994 57.0994L67.6994 57.2994C67.7994 56.0994 67.9994 54.8994 68.2994 53.6994L66.3994 53.2994C66.6994 51.9994 66.9994 50.6994 67.4994 49.3994L65.2994 48.6994C65.2994 48.5994 65.2994 48.5994 65.3994 48.4994L61.8994 47.2994V47.1994C61.9994 46.9994 62.0994 46.6994 62.0994 46.4994C62.2994 45.8994 62.5994 45.2994 62.7994 44.6994C63.0994 43.9994 63.3994 43.3994 63.6994 42.6994L66.4994 43.9994C66.3994 44.1994 66.2994 44.3994 66.1994 44.5994L68.8994 45.7994C69.4994 44.3994 70.1994 43.0994 70.9994 41.7994L72.6994 42.7994C73.2994 41.7994 73.9994 40.6994 74.6994 39.7994L73.0994 38.5994C72.5994 39.2994 72.0994 39.9994 71.5994 40.6994L69.6994 39.4994C70.3994 38.4994 71.0994 37.4994 71.7994 36.4994L68.8994 34.1994C69.0994 33.8994 69.3994 33.5994 69.5994 33.3994C69.6994 33.1994 69.8994 33.0994 69.9994 32.8994L72.7994 35.2994C73.4994 34.4994 74.0994 33.7994 74.8994 33.0994L76.5994 34.6994C77.5994 33.5994 78.6994 32.6994 79.8994 31.7994L81.0994 33.2994C81.7994 32.6994 82.4994 32.1994 83.2994 31.6994L82.1994 30.0994C82.6994 29.6994 83.2994 29.3994 83.7994 28.9994L84.7994 30.6994C85.7994 30.0994 86.8994 29.4994 87.9994 28.8994L87.0994 27.0994C86.3994 27.3994 85.6994 27.7994 84.9994 28.1994L83.8994 26.1994C84.1994 25.9994 84.3994 25.8994 84.6994 25.6994L82.8994 22.3994C83.3994 22.0994 83.8994 21.7994 84.3994 21.5994C84.5994 21.4994 84.7994 21.3994 84.9994 21.2994C85.2994 21.1994 85.5994 20.9994 85.8994 20.8994L87.3994 24.2994C87.6994 24.0994 88.0994 23.9994 88.4994 23.8994L89.3994 25.9994L89.5994 25.8994C92.5994 24.6994 95.7994 23.7994 98.9994 23.3994L99.2994 25.2994C100.499 25.0994 101.699 24.9994 102.899 24.9994L102.799 22.9994C102.699 22.9994 102.599 22.9994 102.499 22.9994L102.399 20.6994C103.799 20.5994 105.099 20.6994 106.499 20.6994L106.399 22.9994C108.299 23.0994 110.299 23.3994 112.199 23.7994L112.699 21.4994C115.399 22.0994 117.999 22.8994 120.499 23.9994L119.599 26.0994C118.699 25.6994 117.899 25.3994 116.999 25.0994L116.299 26.9994C117.399 27.3994 118.599 27.8994 119.699 28.3994L120.499 26.5994C123.399 27.9994 126.099 29.6994 128.599 31.6994L130.099 29.8994C130.999 30.6994 131.899 31.3994 132.699 32.2994L135.299 29.5994C136.499 30.7994 137.599 31.9994 138.699 33.2994L136.299 35.1994C135.699 34.3994 134.999 33.5994 134.299 32.8994L132.099 34.8994C131.599 34.3994 131.199 33.8994 130.699 33.4994L129.299 34.8994C130.199 35.6994 130.999 36.5994 131.799 37.4994L133.299 36.1994C135.399 38.5994 137.099 41.2994 138.599 44.1994L136.799 45.0994C137.199 45.8994 137.599 46.7994 137.899 47.5994L139.799 46.8994C139.699 46.6994 139.599 46.3994 139.499 46.1994L141.599 45.2994C142.099 46.5994 142.599 47.7994 142.999 49.1994L140.999 49.9994C140.899 49.5994 140.799 49.1994 140.599 48.8994L138.699 49.5994C139.099 50.6994 139.399 51.8994 139.699 53.0994L141.599 52.5994C141.799 53.5994 142.099 54.6994 142.199 55.6994L145.199 55.1994C145.099 54.6994 144.999 54.2994 144.999 53.7994L148.299 53.1994C147.999 51.2994 147.499 49.4994 146.899 47.6994L150.399 46.5994C149.399 43.4994 148.099 40.3994 146.399 37.5994C145.899 36.7994 145.399 35.8994 144.899 35.0994C144.799 34.9994 144.699 34.7994 144.599 34.6994L146.499 33.4994C145.999 32.7994 145.499 32.0994 144.999 31.3994L143.199 32.6994C143.199 32.6994 143.199 32.6994 143.199 32.5994C143.099 32.4994 143.099 32.3994 142.999 32.2994C142.099 31.0994 141.199 29.9994 140.299 28.8994L141.999 27.3994C141.599 26.8994 141.099 26.3994 140.699 25.9994L139.099 27.5994C138.199 26.6994 137.299 25.7994 136.399 24.9994L137.599 23.6994C138.299 24.2994 138.999 24.9994 139.699 25.5994L141.799 23.4994C140.599 22.2994 139.299 21.0994 137.899 19.9994L136.299 21.9994C135.499 21.3994 134.699 20.7994 133.899 20.1994L135.399 18.0994C133.999 17.0994 132.499 16.0994 130.999 15.2994L129.499 17.8994C130.399 18.3994 131.299 18.9994 132.099 19.5994L131.099 21.0994C129.899 20.2994 128.599 19.5994 127.399 18.8994C127.199 18.7994 126.999 18.6994 126.799 18.5994C126.399 18.3994 126.099 18.1994 125.699 17.9994C125.599 17.9994 125.599 17.8994 125.499 17.8994C124.599 17.4994 123.699 17.0994 122.799 16.6994C122.699 16.6994 122.599 16.5994 122.499 16.5994C121.899 16.2994 121.199 16.0994 120.599 15.8994C120.499 15.8994 120.399 15.7994 120.299 15.7994L120.999 13.6994C120.299 13.3994 119.499 13.1994 118.799 12.9994L119.499 10.5994C117.899 10.0994 116.199 9.69941 114.499 9.39941L113.899 12.2994C114.699 12.3994 115.399 12.5994 116.199 12.7994L115.799 14.4994C115.399 14.3994 114.899 14.2994 114.499 14.1994C114.199 14.0994 113.899 14.0994 113.699 13.9994C113.099 13.8994 112.399 13.7994 111.799 13.6994C111.599 13.6994 111.499 13.5994 111.299 13.5994C111.299 13.5994 111.299 13.5994 111.199 13.5994L111.499 11.3994C111.399 11.3994 111.199 11.3994 111.099 11.2994L111.399 8.79941C109.699 8.59941 107.899 8.39941 106.199 8.39941L106.099 11.3994C107.199 11.3994 108.299 11.4994 109.499 11.6994L109.299 13.3994C108.099 13.2994 106.799 13.1994 105.599 13.1994L105.699 10.9994C104.599 10.9994 103.399 10.9994 102.199 10.9994L102.099 8.49941C101.099 8.49941 99.9994 8.59941 98.9994 8.69941L99.1994 11.1994C99.0994 11.1994 98.8994 11.1994 98.7994 11.1994L98.9994 13.3994C97.7994 13.4994 96.4994 13.6994 95.2994 13.8994C92.9994 14.2994 90.6994 14.8994 88.4994 15.6994C87.9994 15.8994 87.5994 15.9994 87.0994 16.1994L86.4994 14.4994C86.5994 14.4994 86.6994 14.3994 86.7994 14.3994L85.7994 11.5994C84.1994 12.1994 82.5994 12.8994 80.9994 13.5994L82.0994 15.8994C81.9994 15.8994 81.9994 15.9994 81.8994 15.9994L82.8994 17.9994C81.4994 18.6994 80.0994 19.4994 78.7994 20.2994L77.8994 18.7994C78.1994 18.5994 78.5994 18.3994 78.8994 18.1994L77.3994 15.5994C76.4994 16.0994 75.5994 16.6994 74.7994 17.2994L76.1994 19.3994L76.0994 19.4994L77.3994 21.3994C77.0994 21.5994 76.8994 21.7994 76.5994 21.9994C76.5994 21.9994 76.4994 21.9994 76.4994 22.0994C76.1994 22.2994 75.7994 22.4994 75.4994 22.7994C75.0994 23.0994 74.6994 23.3994 74.2994 23.6994L72.8994 21.8994C72.6994 22.0994 72.4994 22.2994 72.1994 22.4994L70.5994 20.4994C70.2994 20.6994 69.9994 20.9994 69.6994 21.2994C68.6994 22.1994 67.6994 23.0994 66.6994 23.9994L68.4994 25.7994C68.2994 25.9994 67.9994 26.2994 67.7994 26.4994L69.3994 28.0994C68.8994 28.5994 68.4994 29.0994 68.0994 29.4994C67.6994 29.9994 67.1994 30.4994 66.7994 30.9994C65.9994 31.9994 65.1994 33.0994 64.3994 34.1994C63.6994 35.2994 62.9994 36.3994 62.2994 37.4994C62.2994 37.5994 62.1994 37.5994 62.1994 37.6994V37.7994L60.6994 36.8994C60.9994 36.3994 61.2994 35.7994 61.5994 35.2994L59.0994 33.6994C58.5994 34.5994 57.9994 35.4994 57.4994 36.3994L59.7994 37.5994C58.8994 38.3994 58.2994 39.5994 57.7994 40.6994ZM144.099 41.7994C144.399 42.2994 144.599 42.7994 144.799 43.3994L141.999 44.5994C141.799 44.0994 141.599 43.5994 141.299 43.1994L144.099 41.7994ZM59.6994 58.5994C59.7994 57.4994 59.8994 56.3994 59.9994 55.2994L62.9994 55.6994C62.8994 56.6994 62.6994 57.7994 62.6994 58.7994L59.6994 58.5994ZM128.899 24.4994L127.199 26.9994C126.299 26.3994 125.499 25.8994 124.599 25.3994L126.099 22.6994C126.999 23.2994 127.999 23.7994 128.899 24.4994ZM108.699 17.1994C109.299 17.2994 109.799 17.2994 110.399 17.3994L109.999 20.3994C109.499 20.2994 108.999 20.2994 108.499 20.1994L108.699 17.1994ZM98.6994 17.2994L99.0994 20.2994C97.5994 20.4994 95.9994 20.7994 94.4994 21.0994L93.7994 18.0994C94.4994 17.8994 95.1994 17.7994 95.8994 17.5994C96.8994 17.4994 97.7994 17.3994 98.6994 17.2994Z" fill="url(#paint2_linear_486_4278)"/><path d="M151 79.7998L149.3 79.1998C149.5 78.6998 149.7 78.1998 149.8 77.7998C149.9 77.5998 150 77.3998 150 77.0998C150.3 76.1998 150.6 75.2998 150.8 74.3998L148.9 73.8998L147.2 73.3998C147.6 71.9998 147.9 70.6998 148.1 69.2998L144.8 68.6998C145.1 66.9998 145.3 65.2998 145.4 63.4998L142.4 63.2998C142.4 63.7998 142.3 64.2998 142.3 64.7998L140.4 64.5998C140.3 65.7998 140.1 66.9998 139.9 68.1998L141.8 68.5998C141.5 70.2998 141 71.9998 140.4 73.6998L142.6 74.3998C142.2 75.4998 141.9 76.4998 141.4 77.4998L144.8 78.9998C144.5 79.6998 144.2 80.3998 143.9 80.9998C143.7 81.4998 143.4 81.9998 143.1 82.3998L140.4 80.9998C140.7 80.4998 141 79.8998 141.2 79.3998L138.5 78.0998C138.6 77.9998 138.6 77.8998 138.7 77.6998L138.8 77.5998L136.9 76.7998C136.5 77.5998 136.1 78.3998 135.6 79.1998L137.3 80.1998C137 80.7998 136.7 81.2998 136.3 81.7998L134.6 80.7998C134 81.7998 133.2 82.7998 132.5 83.7998L134 84.9998C132.9 86.3998 131.7 87.6998 130.4 88.9998L132.5 91.1998C133.4 90.2998 134.3 89.3998 135.1 88.3998L137.4 90.3998C136.1 91.8998 134.8 93.1998 133.3 94.4998L130.8 91.6998C130.2 92.2998 129.5 92.7998 128.8 93.2998L127.4 91.4998C126.6 92.1998 125.7 92.7998 124.8 93.3998L123.7 91.7998C122.7 92.4998 121.6 93.0998 120.6 93.5998L121.5 95.3998C121.9 95.1998 122.2 94.9998 122.6 94.7998L123.7 96.7998C123.1 97.0998 122.6 97.3998 122 97.6998L123.7 101C123.3 101.2 122.9 101.4 122.5 101.6C122.3 101.7 122.1 101.8 122 101.9L120.5 98.4998C119.1 99.0998 117.7 99.6998 116.3 100.1L115.6 97.8998C114.6 98.1998 113.6 98.4998 112.6 98.6998L112.2 96.7998C111.3 96.9998 110.4 97.1998 109.5 97.2998L109.8 99.1998C109.2 99.2998 108.5 99.3998 107.9 99.4998L107.7 97.4998C106.5 97.5998 105.3 97.6998 104.1 97.6998V99.6998C104.5 99.6998 104.8 99.6998 105.2 99.6998L105.3 102C104.8 102 104.4 102 103.9 102H103.4L103.3 105.7C102 105.7 100.8 105.6 99.5 105.5C99.5 105.5 99.5 105.5 99.4 105.5L99.7 102.5C99.8 102.5 99.9 102.5 100 102.5L100.3 99.4998C97.4 99.1998 94.5 98.5998 91.8 97.6998L92.4 95.7998C91.3 95.3998 90.1 94.9998 89 94.4998L88.2 96.2998C87.9 96.1998 87.6 95.9998 87.3 95.8998L86 98.5998C87.6 99.3998 89.2 99.9998 90.9 100.5L90 103.4C89 103.1 87.9 102.7 86.9 102.3C86.3 102 85.7 101.8 85.1 101.5C84.9 101.4 84.8 101.4 84.6 101.3L86.2 97.9998C85 97.3998 83.9 96.7998 82.7 96.0998L83.9 94.0998C82.6 93.2998 81.3 92.3998 80.1 91.3998L81.3 89.8998C80.6 89.2998 79.9 88.6998 79.2 88.0998L77.9 89.5998C78.3 89.9998 78.8 90.3998 79.2 90.6998L77.7 92.4998C77.6 92.3998 77.4 92.2998 77.3 92.1998L74.9 94.9998C74.4 94.5998 73.9 94.0998 73.4 93.6998L75.9 90.9998C74.4 89.5998 73.1 88.0998 71.9 86.5998L73.7 85.1998C72.6 83.7998 71.6 82.3998 70.7 80.7998L68.1 82.2998C68.5 82.8998 68.8 83.4998 69.2 84.0998L66.4 85.8998C66.5 86.0998 66.7 86.2998 66.9 86.5998L63.8 88.6998C63.9 88.7998 63.9 88.8998 64 88.8998C64.1 88.9998 64.1 89.0998 64.2 89.1998C64.6 89.7998 65 90.2998 65.4 90.8998L63.6 92.2998C63.7 92.4998 63.9 92.5998 64 92.7998L62 94.3998C62.4 94.8998 62.8 95.3998 63.2 95.7998C63.8 96.4998 64.5 97.2998 65.1 97.9998L67.3 95.8998C66.7 95.1998 66.1 94.5998 65.5 93.8998C65.4 93.7998 65.4 93.7998 65.3 93.6998L66.7 92.5998C67 92.9998 67.4 93.3998 67.8 93.7998L67.9 93.8998C68.4 94.4998 68.9 94.9998 69.5 95.5998L67.9 97.1998C68.5 97.7998 69 98.2998 69.6 98.7998L67.9 100.7C68.6 101.3 69.3 102 70.1 102.6L71.7 100.6C72.3 101.1 72.9 101.6 73.6 102.1L74.9 100.3L75 100.4C75.5 100.8 76 101.1 76.6 101.5C77.7 102.2 78.7 102.9 79.8 103.5C80.1 103.6 80.3 103.8 80.6 103.9C81.1 104.2 81.5 104.4 82 104.6C82.4 104.8 82.9 105 83.3 105.2C84 105.5 84.7 105.8 85.4 106.1C85.6 106.2 85.7 106.2 85.9 106.3C86.1 106.4 86.3 106.5 86.6 106.6L86 108.3C84.6 107.8 83.3 107.2 81.9 106.5L80.6 109.2C82 109.9 83.5 110.5 85 111.1L85.9 108.7C87 109.1 88.2 109.5 89.3 109.9L88.6 112.4C89.5 112.7 90.4 112.9 91.4 113.1L92.1 110.2C91.8 110.1 91.4 110 91.1 109.9L91.6 108.2C92.1 108.3 92.6 108.5 93.1 108.6C93.3 108.6 93.5 108.7 93.6 108.7C94.1 108.8 94.6 108.9 95.1 109C95.3 109 95.4 109.1 95.6 109.1C95.9 109.2 96.2 109.2 96.5 109.2L96.2 111.4C96.3 111.4 96.4 111.4 96.5 111.4L96.1 113.9C97.7 114.1 99.3 114.3 100.8 114.4L101 111.4C100.1 111.3 99.2 111.3 98.4 111.2L98.6 109.5C98.9 109.5 99.3 109.6 99.6 109.6C99.7 109.6 99.8 109.6 100 109.6C100.9 109.7 101.8 109.7 102.7 109.8L102.6 112C103 112 103.4 112 103.7 112V114.5H104.1C105.5 114.5 107 114.4 108.4 114.3L108.2 111.8C108.8 111.8 109.4 111.7 110 111.6L109.7 109.4C110.2 109.3 110.8 109.3 111.3 109.2C112.6 109 113.8 108.8 115 108.5C117.2 108 119.3 107.3 121.4 106.5C121.8 106.4 122.1 106.2 122.5 106.1L123.4 108.2C124.2 107.9 124.9 107.5 125.7 107.2L126.8 109.5C128.2 108.8 129.6 108.1 131 107.3L129.5 104.7C129 105 128.5 105.2 128.1 105.5L127.3 103.9C128.8 103.1 130.3 102.2 131.7 101.2L132.7 102.7L134.4 105.2C135.2 104.7 136 104.1 136.7 103.5L134.9 101.1C134.8 101.2 134.6 101.3 134.5 101.4L133.4 99.9998C133.6 99.7998 133.9 99.6998 134.1 99.4998C134.9 98.7998 135.8 98.1998 136.6 97.4998L138.1 99.1998C138.3 98.9998 138.5 98.7998 138.7 98.5998L140.4 100.5C141.6 99.3998 142.7 98.2998 143.8 97.0998L141.9 95.3998C142.4 94.8998 142.8 94.2998 143.3 93.7998L141.6 92.3998C141.8 92.0998 142.1 91.7998 142.3 91.4998C143.1 90.4998 143.9 89.4998 144.6 88.3998C144.7 88.1998 144.8 87.9998 144.9 87.7998C145.3 87.1998 145.7 86.5998 146.1 85.9998C146.2 85.7998 146.3 85.5998 146.5 85.3998C147 84.5998 147.4 83.7998 147.8 82.9998C147.9 82.8998 147.9 82.7998 148 82.5998C148.2 82.0998 148.5 81.5998 148.7 81.0998L150.7 81.9998C151 81.2998 151.3 80.6998 151.5 79.9998L153.9 80.8998C154.2 80.0998 154.5 79.2998 154.8 78.4998L152 77.4998C151.5 78.5998 151.3 79.1998 151 79.7998Z" fill="url(#paint3_linear_486_4278)"/><path d="M147.699 86.6998L150.299 88.1998C150.799 87.3998 151.199 86.4998 151.699 85.6998L148.999 84.2998C148.599 85.0998 148.199 85.8998 147.699 86.6998Z" fill="url(#paint4_linear_486_4278)"/><path d="M143.1 93.3002L145.4 95.2002C146.4 94.0002 147.4 92.7002 148.2 91.4002L145.7 89.7002C145 91.0002 144.1 92.2002 143.1 93.3002Z" fill="url(#paint5_linear_486_4278)"/><path d="M111.899 111.299L112.399 114.299C113.299 114.199 114.299 113.999 115.199 113.799L114.599 110.899C113.699 110.999 112.799 111.099 111.899 111.299Z" fill="url(#paint6_linear_486_4278)"/><path d="M118.899 109.7L119.799 112.6C121.299 112.1 122.799 111.6 124.299 111L123.199 108.2C121.699 108.7 120.299 109.2 118.899 109.7Z" fill="url(#paint7_linear_486_4278)"/><path d="M79.6992 105.5C78.3992 104.8 77.0992 104 75.8992 103.1L74.1992 105.6C75.4992 106.5 76.8992 107.3 78.2992 108.1L79.6992 105.5Z" fill="url(#paint8_linear_486_4278)"/><path d="M61.6992 88.5996L59.1992 90.1996C59.6992 90.8996 60.0992 91.5996 60.5992 92.2996L62.9992 90.5996C62.5992 89.9996 62.1992 89.2996 61.6992 88.5996Z" fill="url(#paint9_linear_486_4278)"/><path d="M56.8996 44.2002C57.1996 43.4002 57.4996 42.7002 57.7996 41.9002L54.9996 40.7002C54.6996 41.5002 54.3996 42.3002 54.0996 43.1002L56.8996 44.2002Z" fill="url(#paint10_linear_486_4278)"/><path d="M63.5992 31.6994C64.5992 30.3994 65.5992 29.0994 66.6992 27.8994L64.4992 25.8994C63.2992 27.1994 62.1992 28.4994 61.1992 29.8994L63.5992 31.6994Z" fill="url(#paint11_linear_486_4278)"/><path d="M146.8 34.7996C147.6 36.0996 148.4 37.3996 149 38.6996L149.2 38.9996L151.9 37.6996L151.7 37.2996C151 35.8996 150.2 34.4996 149.3 33.0996L146.8 34.7996Z" fill="url(#paint12_linear_486_4278)"/><path d="M94.2992 12.1002L93.6992 9.2002C91.9992 9.5002 90.2992 10.0002 88.6992 10.5002L89.5992 13.4002C91.0992 12.9002 92.6992 12.5002 94.2992 12.1002Z" fill="url(#paint13_linear_486_4278)"/><path d="M127.199 13.3996C126.299 12.9996 125.299 12.4996 124.299 12.0996L123.199 14.8996C124.099 15.2996 124.999 15.6996 125.899 16.0996L127.199 13.3996Z" fill="url(#paint14_linear_486_4278)"/><path d="M142.8 29.2998C143.4 30.0998 144 30.7998 144.6 31.5998L147 29.7998C146.4 28.9998 145.7 28.0998 145.1 27.2998L142.8 29.2998Z" fill="url(#paint15_linear_486_4278)"/><path d="M151.399 44.1002L154.199 43.1002C153.899 42.3002 153.599 41.5002 153.199 40.7002L150.399 41.9002C150.799 42.5002 151.099 43.3002 151.399 44.1002Z" fill="url(#paint16_linear_486_4278)"/><path d="M154.8 84.4002L156.6 85.2002C156.9 84.4002 157.3 83.6002 157.6 82.9002L155.7 82.2002C155.5 82.9002 155.1 83.7002 154.8 84.4002Z" fill="url(#paint17_linear_486_4278)"/><path d="M144.199 100L145.599 101.4C146.399 100.6 147.099 99.8002 147.799 99.0002L146.299 97.7002C145.699 98.5002 144.999 99.3002 144.199 100Z" fill="url(#paint18_linear_486_4278)"/><path d="M131.8 109.699L132.8 111.399C134.4 110.499 135.9 109.499 137.4 108.499L136.2 106.899C134.8 107.899 133.4 108.899 131.8 109.699Z" fill="url(#paint19_linear_486_4278)"/><path d="M105.8 117.099L105.9 119.099C107 119.099 108.1 118.999 109.2 118.899L109 116.899C107.9 116.999 106.8 117.099 105.8 117.099Z" fill="url(#paint20_linear_486_4278)"/><path d="M130 113L129.1 111.2C127.5 112 125.9 112.7 124.3 113.3L125 115.2C126.7 114.6 128.3 113.8 130 113Z" fill="url(#paint21_linear_486_4278)"/><path d="M54.7998 91.1996C55.6998 92.6996 56.6998 94.2996 57.7998 95.6996L59.3998 94.4996C58.3998 93.0996 57.3998 91.5996 56.4998 90.0996L54.7998 91.1996Z" fill="url(#paint22_linear_486_4278)"/><path d="M81.3994 114.4C83.0994 115.1 84.7994 115.8 86.4994 116.3L87.0994 114.4C85.3994 113.9 83.7994 113.2 82.1994 112.6L81.3994 114.4Z" fill="url(#paint23_linear_486_4278)"/><path d="M65 103.799C65.8 104.499 66.6 105.299 67.5 105.999L68.8 104.499C68 103.799 67.2 103.099 66.4 102.399L65 103.799Z" fill="url(#paint24_linear_486_4278)"/><path d="M95.2992 116.4C93.5992 116.1 91.7992 115.8 90.1992 115.3L89.6992 117.2C91.4992 117.7 93.1992 118 94.9992 118.3L95.2992 116.4Z" fill="url(#paint25_linear_486_4278)"/><path d="M53.8 85.0996L52 85.9996C52.4 86.7996 52.7 87.4996 53.1 88.2996L54.9 87.3996C54.5 86.5996 54.2 85.8996 53.8 85.0996Z" fill="url(#paint26_linear_486_4278)"/><path d="M161.7 58.2998C161.6 57.2998 161.6 56.2998 161.5 55.2998L159.5 55.4998C159.6 56.4998 159.7 57.4998 159.7 58.3998L161.7 58.2998Z" fill="url(#paint27_linear_486_4278)"/><path d="M159.7 64.6C159.7 65.2 159.6 65.8 159.6 66.4L161.6 66.6C161.7 66 161.7 65.4 161.7 64.8C161.7 64.4 161.7 64 161.8 63.6L159.8 63.5C159.7 63.8 159.7 64.2 159.7 64.6Z" fill="url(#paint28_linear_486_4278)"/><path d="M54.5992 36.1998L52.7992 35.2998C52.3992 36.0998 51.9992 36.7998 51.6992 37.5998L53.4992 38.3998C53.8992 37.6998 54.2992 36.9998 54.5992 36.1998Z" fill="url(#paint29_linear_486_4278)"/><path d="M71.7 16.3996C73 15.4996 74.3 14.5996 75.6 13.7996L74.6 12.0996C73.2 12.8996 71.8 13.7996 70.5 14.7996L71.7 16.3996Z" fill="url(#paint30_linear_486_4278)"/><path d="M64.4996 22.4996L63.0996 21.0996C62.3996 21.7996 61.6996 22.4996 61.0996 23.1996L62.5996 24.4996C63.1996 23.8996 63.8996 23.1996 64.4996 22.4996Z" fill="url(#paint31_linear_486_4278)"/><path d="M98.6996 6.2002L98.4996 4.2002C97.4996 4.3002 96.5996 4.40019 95.5996 4.60019L95.8996 6.60019C96.7996 6.40019 97.7996 6.3002 98.6996 6.2002Z" fill="url(#paint32_linear_486_4278)"/><path d="M136.5 13.8998C135.7 13.3998 134.9 12.7998 134 12.2998L133 13.9998C133.8 14.4998 134.6 14.9998 135.4 15.4998L136.5 13.8998Z" fill="url(#paint33_linear_486_4278)"/><path d="M120.7 6.29961C119.1 5.79961 117.6 5.39961 116 5.09961L115.6 7.09961C117.1 7.39961 118.7 7.79961 120.2 8.29961L120.7 6.29961Z" fill="url(#paint34_linear_486_4278)"/><path d="M147.4 23.5C146.3 22.3 145.2 21.1 144 20L142.6 21.4C143.7 22.5 144.8 23.6 145.9 24.8L147.4 23.5Z" fill="url(#paint35_linear_486_4278)"/><path d="M113.099 4.59961C111.499 4.39961 109.899 4.19961 108.299 4.09961L108.199 6.09961C109.799 6.19961 111.299 6.39961 112.899 6.59961L113.099 4.59961Z" fill="url(#paint36_linear_486_4278)"/><path d="M82.2996 10.3996L81.4996 8.59961C79.9996 9.19961 78.4996 9.89961 77.0996 10.6996L77.9996 12.4996C79.3996 11.6996 80.8996 10.9996 82.2996 10.3996Z" fill="url(#paint37_linear_486_4278)"/><path d="M150.9 27.7998C150.4 27.0998 149.9 26.3998 149.4 25.7998L147.8 26.9998C148.3 27.5998 148.8 28.2998 149.3 28.9998L150.9 27.7998Z" fill="url(#paint38_linear_486_4278)"/><path d="M74.1992 85.7996C74.9992 86.7996 75.8992 87.7996 76.7992 88.6996L78.1992 87.2996C77.2992 86.3996 76.4992 85.4996 75.7992 84.5996L74.1992 85.7996Z" fill="url(#paint39_linear_486_4278)"/><path d="M112.4 23.7998L112 25.7998C112.9 25.9998 113.8 26.1998 114.6 26.4998L115.2 24.5998C114.3 24.2998 113.3 23.9998 112.4 23.7998Z" fill="url(#paint40_linear_486_4278)"/><path d="M158.5 86.3996L160.3 87.1996C160.7 86.3996 161 85.6996 161.3 84.8996L159.4 84.0996C159.1 84.8996 158.8 85.5996 158.5 86.3996Z" fill="url(#paint41_linear_486_4278)"/><path d="M139.5 109.7L140.7 111.3C141.3 110.8 141.9 110.4 142.5 109.9L141.3 108.3C140.7 108.8 140.1 109.2 139.5 109.7Z" fill="url(#paint42_linear_486_4278)"/><path d="M124.6 117.6L125.3 119.5C127.1 118.8 128.9 118.1 130.7 117.3L129.8 115.5C128.1 116.2 126.4 117 124.6 117.6Z" fill="url(#paint43_linear_486_4278)"/><path d="M78.5992 115.5L77.6992 117.3C78.6992 117.8 79.6992 118.2 80.6992 118.6C81.4992 118.9 82.2992 119.2 82.9992 119.5L83.6992 117.6C82.8992 117.3 82.1992 117 81.3992 116.7C80.5992 116.4 79.5992 116 78.5992 115.5Z" fill="url(#paint44_linear_486_4278)"/><path d="M94.3994 122.5C95.1994 122.6 95.8994 122.7 96.6994 122.8L96.8994 120.8C96.1994 120.7 95.3994 120.6 94.6994 120.5L94.3994 122.5Z" fill="url(#paint45_linear_486_4278)"/><path d="M53.8994 97.3998C54.3994 97.9998 54.7994 98.6998 55.2994 99.2998L56.8994 98.0998C56.3994 97.4998 55.9994 96.8998 55.5994 96.2998L53.8994 97.3998Z" fill="url(#paint46_linear_486_4278)"/><path d="M47.0996 85.0002C47.3996 85.8002 47.7996 86.6002 48.0996 87.3002L49.8996 86.5002C49.5996 85.8002 49.1996 85.0002 48.8996 84.2002L47.0996 85.0002Z" fill="url(#paint47_linear_486_4278)"/><path d="M165.9 59.4998C165.9 58.7998 165.8 57.9998 165.8 57.2998L163.8 57.3998C163.9 58.0998 163.9 58.7998 163.9 59.4998H165.9Z" fill="url(#paint48_linear_486_4278)"/><path d="M163.899 61.7002C163.899 62.1002 163.899 62.4002 163.899 62.8002H165.899C165.899 62.4002 165.899 62.1002 165.899 61.7002H163.899Z" fill="url(#paint49_linear_486_4278)"/><path d="M163.3 69.7994L165.3 70.0994C165.5 68.3994 165.7 66.6994 165.8 64.9994L163.8 64.8994C163.7 66.5994 163.5 68.1994 163.3 69.7994Z" fill="url(#paint50_linear_486_4278)"/><path d="M53.8994 29.1996L52.1994 28.0996C51.6994 28.7996 51.2994 29.4996 50.8994 30.2996L52.5994 31.2996C52.9994 30.5996 53.3994 29.8996 53.8994 29.1996Z" fill="url(#paint51_linear_486_4278)"/><path d="M73.1994 10.4002L72.1994 8.7002C71.5994 9.1002 70.9994 9.40019 70.3994 9.80019L71.4994 11.5002C72.0994 11.1002 72.6994 10.7002 73.1994 10.4002Z" fill="url(#paint52_linear_486_4278)"/><path d="M128.499 7.00019L129.299 5.2002C128.699 4.9002 128.099 4.7002 127.499 4.4002C126.499 4.0002 125.499 3.6002 124.399 3.2002L123.699 5.10019C124.699 5.40019 125.699 5.8002 126.699 6.2002C127.299 6.5002 127.899 6.70019 128.499 7.00019Z" fill="url(#paint53_linear_486_4278)"/><path d="M87.0996 4.29941L86.4996 2.39941C84.7996 2.89941 83.1996 3.49941 81.5996 4.09941L82.2996 5.99941C83.7996 5.29941 85.3996 4.79941 87.0996 4.29941Z" fill="url(#paint54_linear_486_4278)"/><path d="M151.599 21.8998C151.199 21.3998 150.699 20.7998 150.199 20.2998L148.699 21.5998C149.099 22.0998 149.599 22.5998 149.999 23.0998L151.599 21.8998Z" fill="url(#paint55_linear_486_4278)"/><path d="M114.299 0.599806C113.599 0.499806 112.899 0.399805 112.199 0.299805L111.899 2.2998C112.599 2.3998 113.199 2.4998 113.899 2.5998L114.299 0.599806Z" fill="url(#paint56_linear_486_4278)"/><path d="M158.799 32.7C158.399 32 157.999 31.2 157.599 30.5L155.899 31.5C156.299 32.2 156.699 32.9 157.099 33.7L158.799 32.7Z" fill="url(#paint57_linear_486_4278)"/><path d="M138 64.3996C138.1 63.3996 138.1 62.4996 138.1 61.4996C138.1 60.8996 138.1 60.2996 138.1 59.6996V59.5996L136.1 59.6996V59.7996C136.1 60.3996 136.1 60.8996 136.1 61.4996C136.1 62.3996 136.1 63.2996 136 64.1996L138 64.3996Z" fill="url(#paint58_linear_486_4278)"/><path d="M116.399 93.1998C117.299 92.8998 118.199 92.4998 118.999 92.0998L118.099 90.2998C117.299 90.6998 116.499 90.9998 115.699 91.3998L116.399 93.1998Z" fill="url(#paint59_linear_486_4278)"/><path d="M126.8 86.7996C127.3 86.3996 127.7 85.8996 128.2 85.4996L126.8 84.0996C126.4 84.4996 125.9 84.8996 125.5 85.2996L126.8 86.7996Z" fill="url(#paint60_linear_486_4278)"/><path d="M124.2 36.5998L125.5 34.9998C124.8 34.3998 124 33.7998 123.2 33.2998L122 34.9998C122.7 35.4998 123.5 36.0998 124.2 36.5998Z" fill="url(#paint61_linear_486_4278)"/><path d="M112.3 30.6002C112.9 30.8002 113.4 30.9002 114 31.1002L114.6 29.2002C114 29.0002 113.4 28.8002 112.8 28.7002L112.3 30.6002Z" fill="url(#paint62_linear_486_4278)"/><path d="M73.2994 69.9002C73.0994 69.3002 72.9994 68.8002 72.8994 68.2002L70.8994 68.6002C70.9994 69.2002 71.1994 69.8002 71.2994 70.4002L73.2994 69.9002Z" fill="url(#paint63_linear_486_4278)"/><path d="M89.6996 30.7998C88.2996 31.4998 86.8996 32.1998 85.5996 33.0998L86.6996 34.7998C87.8996 33.9998 89.1996 33.2998 90.5996 32.5998L89.6996 30.7998Z" fill="url(#paint64_linear_486_4278)"/><path d="M84.6992 89.2996C85.9992 90.1996 87.3992 90.9996 88.7992 91.6996L89.6992 89.8996C88.3992 89.1996 87.0992 88.4996 85.8992 87.5996L84.6992 89.2996Z" fill="url(#paint65_linear_486_4278)"/><path d="M70.5998 56.2998C70.4998 57.1998 70.3998 58.1998 70.2998 59.0998L72.2998 59.1998C72.3998 58.2998 72.4998 57.3998 72.5998 56.4998L70.5998 56.2998Z" fill="url(#paint66_linear_486_4278)"/><path d="M105.6 81.8994L102.7 73.6994H88.1002L85.2002 81.8994H75.2002L90.6002 40.8994H100.6L116 81.8994H105.6ZM95.4002 51.4994L90.3002 66.1994H100.5L95.4002 51.4994Z" fill="url(#paint67_linear_486_4278)"/><path d="M119.5 81.899V40.999H129.1V81.899H119.5Z" fill="url(#paint68_linear_486_4278)"/><path d="M29.2 81.899L5.6 49.299C5.6 49.299 5.7 54.799 5.7 60.199V81.999H0V40.999H6L29.2 73.099C29.2 73.099 29.1 68.099 29.1 62.699V40.999H34.7V81.899H29.2Z" fill="white"/><path d="M43.9004 81.899V40.999H49.7004V76.999H64.0004V81.899H43.9004Z" fill="white"/><path d="M170.1 82.5994C158.2 82.5994 149.2 74.1994 149.2 61.4994C149.2 48.7994 158.4 40.3994 170.1 40.3994C177.7 40.3994 182.4 43.5994 184.6 45.7994L182.2 50.3994C180.6 48.3994 176 45.3994 170.3 45.3994C161.5 45.3994 155.1 51.6994 155.1 61.2994C155.1 70.8994 161.6 77.1994 170.3 77.1994C175.7 77.1994 179.8 75.0994 182.5 72.1994L185 76.3994C182.6 79.3994 177.9 82.5994 170.1 82.5994Z" fill="white"/><path d="M203.1 82.5998C194.7 82.5998 188.2 76.6998 188.2 67.9998C188.2 59.2998 194.7 53.2998 203.1 53.2998C211.5 53.2998 218 59.2998 218 67.9998C218 76.6998 211.5 82.5998 203.1 82.5998ZM203.1 57.7998C197.4 57.7998 193.9 62.1998 193.9 67.6998C193.9 73.2998 197.4 77.6998 203.1 77.6998C208.7 77.6998 212.2 73.2998 212.2 67.6998C212.3 62.1998 208.8 57.7998 203.1 57.7998Z" fill="white"/><path d="M245.801 81.8992V77.3992H245.701C243.401 80.7992 239.901 82.5992 235.801 82.5992C227.401 82.5992 222.101 76.1992 222.101 67.7992C222.101 59.4992 227.401 53.1992 235.701 53.1992C240.301 53.1992 243.601 55.1992 245.501 58.0992H245.601V53.6992H251.201V81.8992H245.801ZM236.801 57.7992C231.201 57.7992 227.801 62.0992 227.801 67.6992C227.801 73.2992 231.101 77.6992 236.801 77.6992C242.501 77.6992 245.801 73.3992 245.801 67.6992C245.801 62.0992 242.401 57.7992 236.801 57.7992Z" fill="white"/><path d="M259.601 81.899V40.999H265.201V81.899H259.601Z" fill="white"/><path d="M276.5 47.999C274.3 47.999 272.8 46.499 272.8 44.499C272.8 42.499 274.3 40.999 276.5 40.999C278.6 40.999 280.2 42.499 280.2 44.499C280.2 46.499 278.6 47.999 276.5 47.999ZM273.6 81.899V53.699H279.3V81.899H273.6Z" fill="white"/><path d="M295.9 82.5994C288.8 82.5994 288.5 76.7994 288.5 71.2994V58.3994H284.3V53.7994H288.5V45.3994H294.2V53.7994H301V58.3994H294.2V71.0994C294.2 73.4994 294.3 75.0994 294.9 76.2994C295.4 77.1994 296.2 77.6994 297.8 77.6994C299.5 77.6994 300.7 76.9994 300.7 76.9994L301.1 81.5994C299.6 82.2994 297.9 82.5994 295.9 82.5994Z" fill="white"/><path d="M308.9 47.999C306.7 47.999 305.2 46.499 305.2 44.499C305.2 42.499 306.7 40.999 308.9 40.999C311 40.999 312.6 42.499 312.6 44.499C312.6 46.499 311 47.999 308.9 47.999ZM306.1 81.899V53.699H311.8V81.899H306.1Z" fill="white"/><path d="M345.4 69.1992H323.7C324 74.7992 327.6 78.1992 332.8 78.1992C338.1 78.1992 341.5 75.3992 342.1 74.8992L344.5 78.1992C344.1 78.4992 340.5 82.5992 332.1 82.5992C323.7 82.5992 318 76.7992 318 67.7992C318 58.8992 324.5 53.1992 332.3 53.1992C340.1 53.1992 345.6 58.7992 345.6 66.6992C345.6 67.6992 345.4 69.1992 345.4 69.1992ZM332 57.2992C326.4 57.2992 323.9 61.9992 323.7 65.3992H340.1C340.1 62.1992 337.7 57.2992 332 57.2992Z" fill="white"/><defs><linearGradient id="paint0_linear_486_4278" x1="46.1885" y1="103.105" x2="137.979" y2="3.10481" gradientUnits="userSpaceOnUse"><stop stop-color="#47DDA1"/><stop offset="0.9988" stop-color="#0066D6"/></linearGradient><linearGradient id="paint1_linear_486_4278" x1="35.63" y1="93.4118" x2="127.421" y2="-6.58789" gradientUnits="userSpaceOnUse"><stop stop-color="#47DDA1"/><stop offset="0.9988" stop-color="#0066D6"/></linearGradient><linearGradient id="paint2_linear_486_4278" x1="47.2018" y1="104.034" x2="138.993" y2="4.03422" gradientUnits="userSpaceOnUse"><stop stop-color="#47DDA1"/><stop offset="0.9988" stop-color="#0066D6"/></linearGradient><linearGradient id="paint3_linear_486_4278" x1="72.1496" y1="126.933" x2="163.94" y2="26.9338" gradientUnits="userSpaceOnUse"><stop stop-color="#47DDA1"/><stop offset="0.9988" stop-color="#0066D6"/></linearGradient><linearGradient id="paint4_linear_486_4278" x1="93.9726" y1="146.966" x2="185.763" y2="46.966" gradientUnits="userSpaceOnUse"><stop stop-color="#47DDA1"/><stop offset="0.9988" stop-color="#0066D6"/></linearGradient><linearGradient id="paint5_linear_486_4278" x1="94.8871" y1="147.805" x2="186.678" y2="47.8057" gradientUnits="userSpaceOnUse"><stop stop-color="#47DDA1"/><stop offset="0.9988" stop-color="#0066D6"/></linearGradient><linearGradient id="paint6_linear_486_4278" x1="87.3974" y1="140.93" x2="179.188" y2="40.9302" gradientUnits="userSpaceOnUse"><stop stop-color="#47DDA1"/><stop offset="0.9988" stop-color="#0066D6"/></linearGradient><linearGradient id="paint7_linear_486_4278" x1="90.6765" y1="143.941" x2="182.467" y2="43.9408" gradientUnits="userSpaceOnUse"><stop stop-color="#47DDA1"/><stop offset="0.9988" stop-color="#0066D6"/></linearGradient><linearGradient id="paint8_linear_486_4278" x1="64.2379" y1="119.672" x2="156.029" y2="19.6722" gradientUnits="userSpaceOnUse"><stop stop-color="#47DDA1"/><stop offset="0.9988" stop-color="#0066D6"/></linearGradient><linearGradient id="paint9_linear_486_4278" x1="48.0069" y1="104.773" x2="139.798" y2="4.77354" gradientUnits="userSpaceOnUse"><stop stop-color="#47DDA1"/><stop offset="0.9988" stop-color="#0066D6"/></linearGradient><linearGradient id="paint10_linear_486_4278" x1="21.2903" y1="80.25" x2="113.081" y2="-19.7498" gradientUnits="userSpaceOnUse"><stop stop-color="#47DDA1"/><stop offset="0.9988" stop-color="#0066D6"/></linearGradient><linearGradient id="paint11_linear_486_4278" x1="18.8515" y1="78.011" x2="110.642" y2="-21.9886" gradientUnits="userSpaceOnUse"><stop stop-color="#47DDA1"/><stop offset="0.9988" stop-color="#0066D6"/></linearGradient><linearGradient id="paint12_linear_486_4278" x1="68.9004" y1="123.951" x2="160.691" y2="23.9515" gradientUnits="userSpaceOnUse"><stop stop-color="#47DDA1"/><stop offset="0.9988" stop-color="#0066D6"/></linearGradient><linearGradient id="paint13_linear_486_4278" x1="25.0436" y1="83.6956" x2="116.834" y2="-16.3042" gradientUnits="userSpaceOnUse"><stop stop-color="#47DDA1"/><stop offset="0.9988" stop-color="#0066D6"/></linearGradient><linearGradient id="paint14_linear_486_4278" x1="44.6901" y1="101.729" x2="136.481" y2="1.72901" gradientUnits="userSpaceOnUse"><stop stop-color="#47DDA1"/><stop offset="0.9988" stop-color="#0066D6"/></linearGradient><linearGradient id="paint15_linear_486_4278" x1="63.1058" y1="118.632" x2="154.896" y2="18.6326" gradientUnits="userSpaceOnUse"><stop stop-color="#47DDA1"/><stop offset="0.9988" stop-color="#0066D6"/></linearGradient><linearGradient id="paint16_linear_486_4278" x1="73.5552" y1="128.225" x2="165.346" y2="28.2251" gradientUnits="userSpaceOnUse"><stop stop-color="#47DDA1"/><stop offset="0.9988" stop-color="#0066D6"/></linearGradient><linearGradient id="paint17_linear_486_4278" x1="96.2423" y1="149.049" x2="188.033" y2="49.0494" gradientUnits="userSpaceOnUse"><stop stop-color="#47DDA1"/><stop offset="0.9988" stop-color="#0066D6"/></linearGradient><linearGradient id="paint18_linear_486_4278" x1="98.6108" y1="151.224" x2="190.401" y2="51.2239" gradientUnits="userSpaceOnUse"><stop stop-color="#47DDA1"/><stop offset="0.9988" stop-color="#0066D6"/></linearGradient><linearGradient id="paint19_linear_486_4278" x1="97.1903" y1="149.918" x2="188.981" y2="49.9189" gradientUnits="userSpaceOnUse"><stop stop-color="#47DDA1"/><stop offset="0.9988" stop-color="#0066D6"/></linearGradient><linearGradient id="paint20_linear_486_4278" x1="86.8457" y1="140.423" x2="178.637" y2="40.4237" gradientUnits="userSpaceOnUse"><stop stop-color="#47DDA1"/><stop offset="0.9988" stop-color="#0066D6"/></linearGradient><linearGradient id="paint21_linear_486_4278" x1="95.1257" y1="148.024" x2="186.917" y2="48.0245" gradientUnits="userSpaceOnUse"><stop stop-color="#47DDA1"/><stop offset="0.9988" stop-color="#0066D6"/></linearGradient><linearGradient id="paint22_linear_486_4278" x1="46.9844" y1="103.834" x2="138.775" y2="3.83454" gradientUnits="userSpaceOnUse"><stop stop-color="#47DDA1"/><stop offset="0.9988" stop-color="#0066D6"/></linearGradient><linearGradient id="paint23_linear_486_4278" x1="72.5639" y1="127.314" x2="164.355" y2="27.3143" gradientUnits="userSpaceOnUse"><stop stop-color="#47DDA1"/><stop offset="0.9988" stop-color="#0066D6"/></linearGradient><linearGradient id="paint24_linear_486_4278" x1="57.9726" y1="113.92" x2="149.764" y2="13.9202" gradientUnits="userSpaceOnUse"><stop stop-color="#47DDA1"/><stop offset="0.9988" stop-color="#0066D6"/></linearGradient><linearGradient id="paint25_linear_486_4278" x1="78.2028" y1="132.491" x2="169.993" y2="32.4908" gradientUnits="userSpaceOnUse"><stop stop-color="#47DDA1"/><stop offset="0.9988" stop-color="#0066D6"/></linearGradient><linearGradient id="paint26_linear_486_4278" x1="41.9462" y1="99.2093" x2="133.737" y2="-0.79033" gradientUnits="userSpaceOnUse"><stop stop-color="#47DDA1"/><stop offset="0.9988" stop-color="#0066D6"/></linearGradient><linearGradient id="paint27_linear_486_4278" x1="85.2481" y1="138.957" x2="177.039" y2="38.9571" gradientUnits="userSpaceOnUse"><stop stop-color="#47DDA1"/><stop offset="0.9988" stop-color="#0066D6"/></linearGradient><linearGradient id="paint28_linear_486_4278" x1="89.2801" y1="142.658" x2="181.071" y2="42.6587" gradientUnits="userSpaceOnUse"><stop stop-color="#47DDA1"/><stop offset="0.9988" stop-color="#0066D6"/></linearGradient><linearGradient id="paint29_linear_486_4278" x1="17.0095" y1="76.3206" x2="108.8" y2="-23.6792" gradientUnits="userSpaceOnUse"><stop stop-color="#47DDA1"/><stop offset="0.9988" stop-color="#0066D6"/></linearGradient><linearGradient id="paint30_linear_486_4278" x1="16.5237" y1="75.874" x2="108.315" y2="-24.1259" gradientUnits="userSpaceOnUse"><stop stop-color="#47DDA1"/><stop offset="0.9988" stop-color="#0066D6"/></linearGradient><linearGradient id="paint31_linear_486_4278" x1="15.2486" y1="74.7037" x2="107.039" y2="-25.296" gradientUnits="userSpaceOnUse"><stop stop-color="#47DDA1"/><stop offset="0.9988" stop-color="#0066D6"/></linearGradient><linearGradient id="paint32_linear_486_4278" x1="25.1486" y1="83.7914" x2="116.939" y2="-16.208" gradientUnits="userSpaceOnUse"><stop stop-color="#47DDA1"/><stop offset="0.9988" stop-color="#0066D6"/></linearGradient><linearGradient id="paint33_linear_486_4278" x1="49.7858" y1="106.406" x2="141.577" y2="6.40593" gradientUnits="userSpaceOnUse"><stop stop-color="#47DDA1"/><stop offset="0.9988" stop-color="#0066D6"/></linearGradient><linearGradient id="paint34_linear_486_4278" x1="37.1606" y1="94.8167" x2="128.951" y2="-5.18281" gradientUnits="userSpaceOnUse"><stop stop-color="#47DDA1"/><stop offset="0.9988" stop-color="#0066D6"/></linearGradient><linearGradient id="paint35_linear_486_4278" x1="59.6873" y1="115.495" x2="151.478" y2="15.4952" gradientUnits="userSpaceOnUse"><stop stop-color="#47DDA1"/><stop offset="0.9988" stop-color="#0066D6"/></linearGradient><linearGradient id="paint36_linear_486_4278" x1="32.3872" y1="90.4359" x2="124.178" y2="-9.56397" gradientUnits="userSpaceOnUse"><stop stop-color="#47DDA1"/><stop offset="0.9988" stop-color="#0066D6"/></linearGradient><linearGradient id="paint37_linear_486_4278" x1="18.2592" y1="77.4672" x2="110.05" y2="-22.5324" gradientUnits="userSpaceOnUse"><stop stop-color="#47DDA1"/><stop offset="0.9988" stop-color="#0066D6"/></linearGradient><linearGradient id="paint38_linear_486_4278" x1="64.4693" y1="119.884" x2="156.26" y2="19.8843" gradientUnits="userSpaceOnUse"><stop stop-color="#47DDA1"/><stop offset="0.9988" stop-color="#0066D6"/></linearGradient><linearGradient id="paint39_linear_486_4278" x1="54.2011" y1="110.459" x2="145.992" y2="10.4593" gradientUnits="userSpaceOnUse"><stop stop-color="#47DDA1"/><stop offset="0.9988" stop-color="#0066D6"/></linearGradient><linearGradient id="paint40_linear_486_4278" x1="43.8991" y1="101.002" x2="135.69" y2="1.00241" gradientUnits="userSpaceOnUse"><stop stop-color="#47DDA1"/><stop offset="0.9988" stop-color="#0066D6"/></linearGradient><linearGradient id="paint41_linear_486_4278" x1="99.1898" y1="151.754" x2="190.981" y2="51.7542" gradientUnits="userSpaceOnUse"><stop stop-color="#47DDA1"/><stop offset="0.9988" stop-color="#0066D6"/></linearGradient><linearGradient id="paint42_linear_486_4278" x1="100.975" y1="153.392" x2="192.765" y2="53.3927" gradientUnits="userSpaceOnUse"><stop stop-color="#47DDA1"/><stop offset="0.9988" stop-color="#0066D6"/></linearGradient><linearGradient id="paint43_linear_486_4278" x1="97.546" y1="150.246" x2="189.337" y2="50.2461" gradientUnits="userSpaceOnUse"><stop stop-color="#47DDA1"/><stop offset="0.9988" stop-color="#0066D6"/></linearGradient><linearGradient id="paint44_linear_486_4278" x1="72.2154" y1="126.995" x2="164.006" y2="26.9952" gradientUnits="userSpaceOnUse"><stop stop-color="#47DDA1"/><stop offset="0.9988" stop-color="#0066D6"/></linearGradient><linearGradient id="paint45_linear_486_4278" x1="82.3045" y1="136.256" x2="174.095" y2="36.256" gradientUnits="userSpaceOnUse"><stop stop-color="#47DDA1"/><stop offset="0.9988" stop-color="#0066D6"/></linearGradient><linearGradient id="paint46_linear_486_4278" x1="48.5237" y1="105.248" x2="140.314" y2="5.2479" gradientUnits="userSpaceOnUse"><stop stop-color="#47DDA1"/><stop offset="0.9988" stop-color="#0066D6"/></linearGradient><linearGradient id="paint47_linear_486_4278" x1="38.796" y1="96.3187" x2="130.587" y2="-3.6811" gradientUnits="userSpaceOnUse"><stop stop-color="#47DDA1"/><stop offset="0.9988" stop-color="#0066D6"/></linearGradient><linearGradient id="paint48_linear_486_4278" x1="88.3232" y1="141.779" x2="180.114" y2="41.78" gradientUnits="userSpaceOnUse"><stop stop-color="#47DDA1"/><stop offset="0.9988" stop-color="#0066D6"/></linearGradient><linearGradient id="paint49_linear_486_4278" x1="90.2685" y1="143.567" x2="182.06" y2="43.5668" gradientUnits="userSpaceOnUse"><stop stop-color="#47DDA1"/><stop offset="0.9988" stop-color="#0066D6"/></linearGradient><linearGradient id="paint50_linear_486_4278" x1="92.701" y1="145.798" x2="184.492" y2="45.798" gradientUnits="userSpaceOnUse"><stop stop-color="#47DDA1"/><stop offset="0.9988" stop-color="#0066D6"/></linearGradient><linearGradient id="paint51_linear_486_4278" x1="13.0148" y1="72.6534" x2="104.806" y2="-27.3462" gradientUnits="userSpaceOnUse"><stop stop-color="#47DDA1"/><stop offset="0.9988" stop-color="#0066D6"/></linearGradient><linearGradient id="paint52_linear_486_4278" x1="13.7798" y1="73.3562" x2="105.571" y2="-26.6435" gradientUnits="userSpaceOnUse"><stop stop-color="#47DDA1"/><stop offset="0.9988" stop-color="#0066D6"/></linearGradient><linearGradient id="paint53_linear_486_4278" x1="40.9092" y1="98.2589" x2="132.7" y2="-1.74092" gradientUnits="userSpaceOnUse"><stop stop-color="#47DDA1"/><stop offset="0.9988" stop-color="#0066D6"/></linearGradient><linearGradient id="paint54_linear_486_4278" x1="17.5902" y1="76.8529" x2="109.381" y2="-23.1468" gradientUnits="userSpaceOnUse"><stop stop-color="#47DDA1"/><stop offset="0.9988" stop-color="#0066D6"/></linearGradient><linearGradient id="paint55_linear_486_4278" x1="62.1016" y1="117.711" x2="153.892" y2="17.7114" gradientUnits="userSpaceOnUse"><stop stop-color="#47DDA1"/><stop offset="0.9988" stop-color="#0066D6"/></linearGradient><linearGradient id="paint56_linear_486_4278" x1="31.8807" y1="89.9711" x2="123.671" y2="-10.0289" gradientUnits="userSpaceOnUse"><stop stop-color="#47DDA1"/><stop offset="0.9988" stop-color="#0066D6"/></linearGradient><linearGradient id="paint57_linear_486_4278" x1="71.1226" y1="125.992" x2="162.913" y2="25.9919" gradientUnits="userSpaceOnUse"><stop stop-color="#47DDA1"/><stop offset="0.9988" stop-color="#0066D6"/></linearGradient><linearGradient id="paint58_linear_486_4278" x1="75.0285" y1="129.576" x2="166.819" y2="29.5762" gradientUnits="userSpaceOnUse"><stop stop-color="#47DDA1"/><stop offset="0.9988" stop-color="#0066D6"/></linearGradient><linearGradient id="paint59_linear_486_4278" x1="79.0924" y1="133.307" x2="170.883" y2="33.3074" gradientUnits="userSpaceOnUse"><stop stop-color="#47DDA1"/><stop offset="0.9988" stop-color="#0066D6"/></linearGradient><linearGradient id="paint60_linear_486_4278" x1="81.1209" y1="135.168" x2="172.912" y2="35.1686" gradientUnits="userSpaceOnUse"><stop stop-color="#47DDA1"/><stop offset="0.9988" stop-color="#0066D6"/></linearGradient><linearGradient id="paint61_linear_486_4278" x1="54.293" y1="110.543" x2="146.084" y2="10.5432" gradientUnits="userSpaceOnUse"><stop stop-color="#47DDA1"/><stop offset="0.9988" stop-color="#0066D6"/></linearGradient><linearGradient id="paint62_linear_486_4278" x1="46.2158" y1="103.129" x2="138.006" y2="3.12941" gradientUnits="userSpaceOnUse"><stop stop-color="#47DDA1"/><stop offset="0.9988" stop-color="#0066D6"/></linearGradient><linearGradient id="paint63_linear_486_4278" x1="43.3806" y1="100.527" x2="135.171" y2="0.527194" gradientUnits="userSpaceOnUse"><stop stop-color="#47DDA1"/><stop offset="0.9988" stop-color="#0066D6"/></linearGradient><linearGradient id="paint64_linear_486_4278" x1="33.9289" y1="91.8508" x2="125.72" y2="-8.14894" gradientUnits="userSpaceOnUse"><stop stop-color="#47DDA1"/><stop offset="0.9988" stop-color="#0066D6"/></linearGradient><linearGradient id="paint65_linear_486_4278" x1="61.8703" y1="117.499" x2="153.661" y2="17.4989" gradientUnits="userSpaceOnUse"><stop stop-color="#47DDA1"/><stop offset="0.9988" stop-color="#0066D6"/></linearGradient><linearGradient id="paint66_linear_486_4278" x1="37.3256" y1="94.9683" x2="129.116" y2="-5.03148" gradientUnits="userSpaceOnUse"><stop stop-color="#47DDA1"/><stop offset="0.9988" stop-color="#0066D6"/></linearGradient><linearGradient id="paint67_linear_486_4278" x1="56.4263" y1="112.5" x2="148.217" y2="12.5007" gradientUnits="userSpaceOnUse"><stop stop-color="#47DDA1"/><stop offset="0.9988" stop-color="#0066D6"/></linearGradient><linearGradient id="paint68_linear_486_4278" x1="67.8336" y1="122.971" x2="159.624" y2="22.9713" gradientUnits="userSpaceOnUse"><stop stop-color="#47DDA1"/><stop offset="0.9988" stop-color="#0066D6"/></linearGradient></defs></svg>